<?xml version="1.0" standalone="no"?>
<!DOCTYPE svg PUBLIC "-//W3C//DTD SVG 20010904//EN"
 "http://www.w3.org/TR/2001/REC-SVG-20010904/DTD/svg10.dtd">
<svg version="1.0" xmlns="http://www.w3.org/2000/svg"
 width="74.000000pt" height="74.000000pt" viewBox="0 0 74.000000 74.000000"
 preserveAspectRatio="xMidYMid meet">
<metadata>
Created by potrace 1.14, written by Peter Selinger 2001-2017
</metadata>
<g transform="translate(0.000000,74.000000) scale(0.100000,-0.100000)"
fill="#000000" stroke="none">
<path d="M74 728 l-50 -10 -2 -345 c-1 -236 1 -350 9 -359 7 -9 18 -10 35 -4
13 5 39 10 59 12 19 1 35 7 36 13 0 5 1 126 2 267 1 141 5 254 8 250 8 -9 130
-492 129 -513 0 -26 20 -38 49 -28 14 4 40 10 56 12 23 3 31 9 33 28 4 26 104
406 126 479 13 41 14 18 12 -228 -2 -257 -1 -275 17 -287 12 -9 27 -10 45 -4
15 5 39 11 53 14 l26 5 2 343 c1 279 -1 346 -12 355 -20 17 -127 -7 -127 -28
0 -14 -125 -491 -135 -515 -2 -5 -4 100 -3 235 0 356 8 327 -81 309 l-61 -13
-1 -236 c-1 -129 0 -248 1 -265 1 -16 -1 -27 -5 -24 -9 9 -126 457 -129 495
-1 16 -6 36 -10 42 -8 13 -10 13 -82 0z"/>
</g>
</svg>
